<?xml version="1.0" encoding="utf-8"?>
<svg viewBox="212.339 178.943 260.36 88.046" xmlns="http://www.w3.org/2000/svg">
    <circle style="fill: rgb(255, 64, 129);" cx="256.362" cy="222.966" r="44.023"/>
    <path style="opacity: 0.1;" d="M 272.798 203.018 L 272.625 202.845 L 272.601 202.849 C 271.915 202.276 271.084 201.881 270.166 201.714 L 268.764 200.313 L 268.757 200.319 C 267.881 199.462 266.689 198.935 265.405 198.935 C 264.929 198.935 264.461 199.009 264.011 199.147 C 263.305 198.275 262.223 197.743 261.067 197.743 C 258.994 197.743 257.316 199.403 257.316 201.43 L 257.316 201.852 L 254.412 198.947 C 254.345 198.876 254.278 198.807 254.205 198.74 L 254.118 198.653 L 254.11 198.663 C 253.452 198.098 252.601 197.743 251.658 197.743 C 250.501 197.743 249.419 198.275 248.713 199.146 C 248.264 199.008 247.796 198.935 247.319 198.935 C 245.466 198.935 243.788 200.017 243.008 201.631 C 240.43 201.87 238.377 203.951 238.257 206.529 C 235.799 206.96 233.928 209.069 233.928 211.61 C 233.928 212.225 234.038 212.83 234.249 213.399 C 232.314 214.738 231.14 216.93 231.14 219.296 C 231.14 220.589 231.479 221.827 232.14 222.929 C 231.488 223.919 231.14 225.084 231.14 226.266 C 231.14 228.386 232.24 230.32 234.02 231.44 C 233.543 232.384 233.286 233.421 233.286 234.484 C 233.286 237.547 235.332 240.171 238.248 241.014 C 238.275 242.355 238.824 243.57 239.699 244.475 L 239.701 244.477 C 239.761 244.538 239.82 244.6 239.883 244.659 L 261.86 266.636 C 281.248 264.219 296.718 249.204 299.814 230.033 L 273.146 203.366 C 273.035 203.244 272.919 203.13 272.798 203.018 Z"/>
    <path style="fill: rgb(63, 81, 181);" d="M 281.584 219.298 C 281.584 216.932 280.411 214.742 278.47 213.401 C 278.685 212.83 278.797 212.222 278.797 211.609 C 278.797 209.072 276.927 206.957 274.471 206.525 C 274.345 203.953 272.297 201.87 269.711 201.636 C 268.94 200.019 267.258 198.939 265.408 198.939 C 264.931 198.939 264.459 199.009 264.008 199.146 C 263.304 198.275 262.225 197.743 261.066 197.743 C 258.997 197.743 257.313 199.399 257.313 201.432 L 257.313 214.628 C 257.313 216.234 258.042 217.749 259.245 218.78 C 258.03 219.873 257.313 221.429 257.313 223.093 L 257.313 231.214 C 257.313 232.198 257.561 233.152 258.035 234.007 C 257.562 234.828 257.313 235.751 257.313 236.71 L 257.313 243.023 C 257.313 245.87 259.67 248.188 262.566 248.188 C 264.461 248.188 266.167 247.199 267.095 245.642 C 267.761 245.933 268.481 246.083 269.223 246.083 C 272.086 246.083 274.423 243.818 274.475 241.017 C 277.393 240.174 279.434 237.547 279.434 234.482 C 279.434 233.417 279.184 232.383 278.705 231.444 C 280.481 230.324 281.582 228.386 281.582 226.264 C 281.582 225.081 281.232 223.92 280.585 222.932 C 281.241 221.831 281.584 220.586 281.584 219.298 Z"/>
    <path style="fill: rgb(117, 125, 232);" d="M 277.832 229.8 C 276.549 227.612 273.979 227.166 272.637 227.096 C 272.372 226.004 271.755 225.015 270.851 224.283 C 270.453 223.96 269.865 224.016 269.539 224.408 C 269.212 224.799 269.268 225.377 269.666 225.698 C 270.462 226.343 270.919 227.293 270.919 228.304 C 270.919 230.165 269.379 231.679 267.489 231.679 C 265.598 231.679 264.059 230.166 264.059 228.304 C 264.059 227.496 264.354 226.716 264.89 226.105 C 264.901 226.091 264.904 226.073 264.916 226.058 C 265.174 226.021 265.43 225.964 265.684 225.872 C 267.645 225.152 268.645 222.999 267.915 221.07 C 267.733 220.596 267.198 220.359 266.715 220.532 C 266.232 220.708 265.986 221.238 266.166 221.712 C 266.537 222.692 266.029 223.787 265.031 224.152 C 264.033 224.518 262.92 224.018 262.547 223.037 C 262.368 222.562 261.83 222.322 261.348 222.499 C 260.866 222.675 260.62 223.204 260.801 223.679 C 261.177 224.671 261.943 225.404 262.862 225.793 C 262.433 226.558 262.194 227.419 262.194 228.304 C 262.194 231.176 264.569 233.513 267.49 233.513 C 270.189 233.513 272.419 231.515 272.741 228.945 C 273.891 229.04 275.908 229.476 276.518 231.364 C 276.546 231.45 276.588 231.524 276.637 231.595 C 276.642 231.601 276.642 231.61 276.646 231.616 C 277.251 232.459 277.571 233.451 277.571 234.484 C 277.571 236.569 276.272 238.368 274.371 239.104 C 274.073 237.31 272.874 236.143 272.811 236.085 C 272.438 235.736 271.848 235.752 271.492 236.119 C 271.138 236.486 271.154 237.068 271.527 237.416 C 271.54 237.427 272.741 238.598 272.571 240.205 C 272.566 240.245 272.581 240.281 272.582 240.32 C 272.583 240.359 272.57 240.396 272.576 240.436 C 272.601 240.595 272.613 240.757 272.613 240.92 C 272.613 242.757 271.094 244.251 269.226 244.251 C 268.772 244.251 268.334 244.153 267.925 243.984 C 268.339 242.896 268.413 241.258 267.134 239.51 C 267.751 238.501 267.738 237.183 266.993 236.168 C 266.691 235.759 266.107 235.664 265.691 235.962 C 265.274 236.259 265.181 236.832 265.482 237.242 C 265.876 237.777 265.753 238.527 265.208 238.914 C 264.665 239.301 263.901 239.181 263.506 238.646 C 263.203 238.234 262.62 238.143 262.204 238.439 C 261.786 238.736 261.694 239.309 261.995 239.719 C 262.597 240.539 263.542 240.974 264.499 240.974 C 264.913 240.974 265.326 240.884 265.719 240.718 C 266.885 242.427 266.056 243.628 265.939 243.779 C 265.887 243.844 265.862 243.919 265.83 243.991 C 265.819 244.016 265.796 244.034 265.786 244.059 C 265.33 245.431 264.037 246.353 262.568 246.353 C 260.701 246.353 259.181 244.858 259.181 243.022 L 259.181 236.709 C 259.181 236.259 259.272 235.825 259.429 235.415 C 260.261 235.954 261.596 236.569 263.434 236.569 C 263.521 236.569 263.61 236.569 263.699 236.564 C 264.214 236.549 264.618 236.125 264.6 235.62 C 264.584 235.123 264.17 234.731 263.67 234.731 C 263.659 234.731 263.649 234.731 263.639 234.732 C 263.569 234.734 263.5 234.735 263.433 234.735 C 261.294 234.735 260.095 233.663 259.875 233.446 C 259.423 232.784 259.179 232.015 259.179 231.212 L 259.179 223.094 C 259.179 221.618 260.002 220.263 261.325 219.562 C 261.347 219.55 261.364 219.533 261.385 219.519 C 261.397 219.511 261.41 219.511 261.423 219.502 C 261.627 219.362 263.471 218.182 265.418 219.812 C 265.594 219.96 265.809 220.03 266.024 220.03 C 266.286 220.03 266.549 219.922 266.735 219.708 C 267.068 219.323 267.021 218.743 266.629 218.415 C 264.48 216.616 262.165 217.047 260.873 217.694 C 259.832 217.024 259.179 215.868 259.179 214.628 L 259.179 201.432 C 259.179 200.41 260.026 199.578 261.066 199.578 C 261.72 199.578 262.309 199.927 262.651 200.465 C 262.486 201.212 262.093 202.248 261.521 202.581 C 261.077 202.839 260.931 203.402 261.193 203.838 C 261.368 204.126 261.678 204.287 261.997 204.287 C 262.158 204.287 262.323 204.245 262.47 204.158 C 263.711 203.436 264.245 201.817 264.449 200.956 C 264.756 200.848 265.077 200.774 265.407 200.774 C 266.642 200.774 267.747 201.568 268.136 202.714 C 268.147 203.221 268.115 205.252 266.965 206.517 C 266.524 207.005 265.964 207.318 265.278 207.475 C 265.07 206.519 264.383 205.685 263.377 205.34 C 262.896 205.172 262.36 205.425 262.189 205.904 C 262.02 206.382 262.276 206.904 262.764 207.071 C 263.326 207.264 263.624 207.87 263.429 208.423 C 263.233 208.976 262.617 209.271 262.054 209.077 C 261.565 208.91 261.037 209.162 260.867 209.64 C 260.698 210.118 260.954 210.641 261.441 210.807 C 261.761 210.917 262.086 210.97 262.407 210.97 C 263.507 210.97 264.54 210.355 265.041 209.357 C 266.399 209.192 267.526 208.661 268.367 207.73 C 269.556 206.413 269.89 204.651 269.976 203.538 C 271.482 203.876 272.611 205.198 272.611 206.778 C 272.611 206.933 272.599 207.088 272.578 207.239 C 272.568 207.306 272.591 207.37 272.599 207.436 C 272.535 208.014 272.279 209.007 271.844 209.282 C 271.412 209.558 271.288 210.125 271.567 210.551 C 271.747 210.823 272.046 210.971 272.352 210.971 C 272.526 210.971 272.7 210.922 272.857 210.824 C 273.736 210.266 274.14 209.179 274.326 208.379 C 275.816 208.728 276.931 210.04 276.931 211.61 C 276.931 211.889 276.892 212.166 276.821 212.436 C 275.216 211.715 272.609 211.342 269.907 213.091 C 269.118 212.585 268.195 212.331 267.243 212.39 C 266.077 212.467 265.011 212.985 264.24 213.85 C 263.901 214.231 263.94 214.81 264.328 215.144 C 264.714 215.476 265.302 215.44 265.644 215.057 C 266.085 214.562 266.696 214.264 267.365 214.221 C 268.03 214.18 268.68 214.393 269.184 214.828 C 270.225 215.724 270.331 217.285 269.418 218.31 C 269.079 218.69 269.118 219.27 269.505 219.604 C 269.683 219.756 269.902 219.831 270.12 219.831 C 270.379 219.831 270.637 219.725 270.822 219.517 C 272.115 218.064 272.214 216.001 271.237 214.436 C 274.221 212.715 276.597 214.4 276.708 214.481 C 276.729 214.497 276.754 214.501 276.776 214.514 C 276.797 214.526 276.809 214.547 276.83 214.558 C 278.61 215.498 279.716 217.315 279.716 219.298 C 279.716 220.018 279.557 220.712 279.28 221.364 C 278.581 220.792 277.838 220.573 277.268 220.5 C 276.925 219.046 275.838 217.839 274.351 217.371 C 273.866 217.219 273.335 217.483 273.179 217.966 C 273.021 218.446 273.291 218.964 273.783 219.118 C 274.803 219.44 275.504 220.364 275.526 221.419 C 275.545 222.306 275.073 223.138 274.296 223.593 C 273.853 223.852 273.708 224.415 273.971 224.85 C 274.145 225.138 274.455 225.298 274.773 225.298 C 274.936 225.298 275.1 225.257 275.25 225.169 C 276.308 224.55 277.034 223.524 277.288 222.368 C 277.706 222.477 278.232 222.751 278.66 223.438 C 278.674 223.461 278.694 223.477 278.709 223.498 C 278.719 223.511 278.722 223.526 278.732 223.538 C 279.375 224.317 279.716 225.259 279.716 226.262 C 279.718 227.696 278.995 229.002 277.832 229.8 Z"/>
    <path style="fill: rgb(63, 81, 181);" d="M 232.137 222.931 C 231.491 223.92 231.139 225.081 231.139 226.263 C 231.139 228.386 232.241 230.324 234.016 231.443 C 233.539 232.382 233.289 233.417 233.289 234.482 C 233.289 237.545 235.329 240.172 238.247 241.016 C 238.3 243.819 240.636 246.082 243.499 246.082 C 244.241 246.082 244.962 245.932 245.627 245.641 C 246.555 247.199 248.262 248.187 250.157 248.187 C 253.052 248.187 255.409 245.87 255.409 243.023 L 255.409 236.709 C 255.409 235.75 255.162 234.826 254.687 234.006 C 255.16 233.151 255.409 232.197 255.409 231.213 L 255.409 223.094 C 255.409 221.43 254.693 219.875 253.478 218.781 C 254.681 217.749 255.409 216.234 255.409 214.629 L 255.409 201.432 C 255.409 199.399 253.726 197.744 251.656 197.744 C 250.497 197.744 249.418 198.275 248.715 199.147 C 248.264 199.011 247.791 198.939 247.315 198.939 C 245.466 198.939 243.782 200.019 243.012 201.636 C 240.426 201.87 238.378 203.953 238.252 206.525 C 235.796 206.957 233.926 209.072 233.926 211.609 C 233.926 212.223 234.038 212.83 234.253 213.401 C 232.312 214.742 231.139 216.932 231.139 219.299 C 231.139 220.586 231.482 221.831 232.137 222.931 Z"/>
    <path style="fill: rgb(117, 125, 232);" d="M 233.004 226.263 C 233.004 225.259 233.345 224.317 233.989 223.538 C 234 223.526 234.003 223.511 234.012 223.499 C 234.028 223.477 234.048 223.462 234.062 223.438 C 234.489 222.751 235.016 222.477 235.434 222.368 C 235.686 223.525 236.412 224.55 237.472 225.169 C 237.621 225.257 237.786 225.298 237.946 225.298 C 238.265 225.298 238.575 225.138 238.749 224.85 C 239.012 224.414 238.866 223.852 238.423 223.593 C 237.647 223.139 237.176 222.306 237.195 221.419 C 237.217 220.366 237.917 219.44 238.937 219.118 C 239.428 218.964 239.699 218.448 239.542 217.966 C 239.384 217.484 238.855 217.22 238.369 217.371 C 236.881 217.84 235.795 219.046 235.452 220.501 C 234.882 220.574 234.141 220.792 233.439 221.365 C 233.163 220.713 233.004 220.018 233.004 219.298 C 233.004 217.315 234.11 215.498 235.889 214.559 C 235.911 214.548 235.925 214.527 235.944 214.514 C 235.966 214.5 235.992 214.498 236.013 214.482 C 236.124 214.4 238.499 212.714 241.483 214.436 C 240.506 216 240.605 218.064 241.898 219.517 C 242.083 219.725 242.342 219.831 242.6 219.831 C 242.819 219.831 243.038 219.757 243.214 219.604 C 243.602 219.27 243.642 218.691 243.302 218.311 C 242.391 217.286 242.495 215.724 243.536 214.828 C 244.041 214.393 244.69 214.181 245.357 214.222 C 246.025 214.265 246.637 214.562 247.078 215.057 C 247.419 215.44 248.008 215.476 248.394 215.144 C 248.782 214.81 248.821 214.231 248.482 213.85 C 247.712 212.985 246.645 212.467 245.479 212.391 C 244.526 212.331 243.603 212.586 242.815 213.091 C 240.112 211.342 237.504 211.716 235.9 212.436 C 235.83 212.167 235.791 211.89 235.791 211.61 C 235.791 210.04 236.906 208.727 238.396 208.379 C 238.58 209.179 238.985 210.266 239.864 210.824 C 240.021 210.922 240.196 210.971 240.369 210.971 C 240.676 210.971 240.976 210.823 241.153 210.551 C 241.433 210.126 241.31 209.558 240.876 209.283 C 240.443 209.008 240.188 208.015 240.123 207.436 C 240.13 207.371 240.153 207.307 240.144 207.239 C 240.123 207.089 240.11 206.934 240.11 206.778 C 240.11 205.197 241.239 203.877 242.745 203.538 C 242.831 204.652 243.164 206.413 244.355 207.731 C 245.197 208.661 246.323 209.193 247.679 209.358 C 248.182 210.356 249.214 210.97 250.315 210.97 C 250.637 210.97 250.961 210.917 251.281 210.808 C 251.767 210.641 252.025 210.118 251.855 209.64 C 251.686 209.163 251.156 208.91 250.667 209.077 C 250.105 209.271 249.49 208.977 249.294 208.423 C 249.098 207.87 249.396 207.264 249.959 207.072 C 250.445 206.904 250.702 206.382 250.533 205.904 C 250.362 205.426 249.827 205.173 249.345 205.34 C 248.339 205.685 247.652 206.52 247.444 207.476 C 246.758 207.319 246.198 207.005 245.756 206.517 C 244.607 205.252 244.575 203.221 244.585 202.714 C 244.975 201.568 246.081 200.774 247.316 200.774 C 247.646 200.774 247.967 200.849 248.274 200.956 C 248.478 201.817 249.012 203.436 250.252 204.159 C 250.401 204.245 250.566 204.287 250.726 204.287 C 251.045 204.287 251.355 204.126 251.529 203.838 C 251.792 203.401 251.646 202.839 251.203 202.581 C 250.63 202.248 250.237 201.214 250.072 200.466 C 250.414 199.928 251.003 199.578 251.656 199.578 C 252.697 199.578 253.543 200.411 253.543 201.433 L 253.543 214.628 C 253.543 215.868 252.891 217.025 251.849 217.694 C 250.557 217.047 248.243 216.616 246.095 218.415 C 245.702 218.743 245.655 219.323 245.989 219.708 C 246.174 219.921 246.436 220.031 246.7 220.031 C 246.913 220.031 247.129 219.96 247.304 219.813 C 249.252 218.182 251.097 219.362 251.299 219.503 C 251.311 219.511 251.324 219.511 251.337 219.519 C 251.358 219.533 251.374 219.55 251.397 219.563 C 252.72 220.264 253.543 221.618 253.543 223.094 L 253.543 231.215 C 253.543 232.017 253.3 232.787 252.848 233.449 C 252.627 233.666 251.428 234.738 249.29 234.738 C 249.222 234.738 249.155 234.737 249.084 234.735 C 249.074 234.734 249.064 234.734 249.053 234.734 C 248.552 234.734 248.138 235.126 248.123 235.622 C 248.104 236.128 248.508 236.552 249.024 236.568 C 249.113 236.571 249.202 236.573 249.289 236.573 C 251.127 236.573 252.462 235.957 253.293 235.417 C 253.45 235.828 253.542 236.263 253.542 236.713 L 253.542 243.026 C 253.542 244.862 252.022 246.356 250.155 246.356 C 248.686 246.356 247.393 245.434 246.936 244.063 C 246.928 244.036 246.904 244.019 246.893 243.994 C 246.862 243.922 246.836 243.848 246.784 243.783 C 246.667 243.631 245.839 242.431 247.004 240.721 C 247.397 240.888 247.81 240.977 248.225 240.977 C 249.182 240.977 250.126 240.542 250.729 239.723 C 251.03 239.313 250.937 238.74 250.519 238.443 C 250.103 238.146 249.519 238.237 249.216 238.649 C 248.822 239.184 248.058 239.304 247.515 238.917 C 246.971 238.53 246.847 237.78 247.241 237.246 C 247.543 236.835 247.448 236.262 247.031 235.965 C 246.614 235.668 246.03 235.76 245.728 236.172 C 244.983 237.185 244.971 238.503 245.588 239.514 C 244.31 241.262 244.383 242.899 244.798 243.988 C 244.388 244.156 243.95 244.254 243.496 244.254 C 241.628 244.254 240.108 242.76 240.108 240.924 C 240.108 240.758 240.121 240.597 240.146 240.439 C 240.152 240.399 240.14 240.362 240.14 240.323 C 240.141 240.283 240.156 240.248 240.152 240.208 C 239.981 238.602 241.182 237.43 241.195 237.419 C 241.568 237.07 241.584 236.489 241.23 236.123 C 240.874 235.755 240.284 235.739 239.912 236.088 C 239.849 236.147 238.649 237.314 238.35 239.108 C 236.451 238.372 235.151 236.573 235.151 234.487 C 235.151 233.455 235.471 232.463 236.077 231.62 C 236.081 231.614 236.081 231.606 236.086 231.598 C 236.133 231.528 236.176 231.453 236.203 231.368 C 236.813 229.478 238.831 229.043 239.981 228.948 C 240.303 231.518 242.533 233.516 245.233 233.516 C 248.152 233.516 250.529 231.18 250.529 228.308 C 250.529 227.423 250.288 226.561 249.859 225.796 C 250.779 225.408 251.545 224.674 251.921 223.681 C 252.102 223.206 251.857 222.678 251.374 222.502 C 250.893 222.325 250.354 222.566 250.174 223.041 C 249.803 224.02 248.69 224.521 247.691 224.156 C 246.692 223.791 246.184 222.695 246.556 221.715 C 246.736 221.24 246.491 220.712 246.008 220.535 C 245.524 220.362 244.989 220.599 244.807 221.074 C 244.076 223.002 245.078 225.155 247.038 225.874 C 247.291 225.967 247.548 226.024 247.806 226.062 C 247.817 226.077 247.82 226.094 247.833 226.107 C 248.367 226.72 248.663 227.5 248.663 228.308 C 248.663 230.168 247.124 231.681 245.233 231.681 C 243.341 231.681 241.802 230.169 241.802 228.308 C 241.802 227.297 242.259 226.346 243.055 225.701 C 243.453 225.38 243.51 224.802 243.181 224.411 C 242.855 224.019 242.268 223.965 241.869 224.286 C 240.966 225.018 240.348 226.006 240.085 227.099 C 238.742 227.17 236.173 227.616 234.89 229.803 C 233.728 229.002 233.004 227.696 233.004 226.263 Z"/>
    <path d="M 334.824013671875 222.092978515625 Q 334.824013671875 223.172978515625 334.689013671875 224.342978515625 L 317.274013671875 224.342978515625 Q 317.454013671875 226.682978515625 318.781513671875 227.920478515625 Q 320.109013671875 229.157978515625 322.044013671875 229.157978515625 Q 324.924013671875 229.157978515625 326.049013671875 226.727978515625 L 334.239013671875 226.727978515625 Q 333.609013671875 229.202978515625 331.966513671875 231.182978515625 Q 330.324013671875 233.162978515625 327.849013671875 234.287978515625 Q 325.374013671875 235.412978515625 322.314013671875 235.412978515625 Q 318.624013671875 235.412978515625 315.744013671875 233.837978515625 Q 312.864013671875 232.262978515625 311.244013671875 229.337978515625 Q 309.624013671875 226.412978515625 309.624013671875 222.497978515625 Q 309.624013671875 218.582978515625 311.221513671875 215.657978515625 Q 312.819013671875 212.732978515625 315.699013671875 211.157978515625 Q 318.579013671875 209.582978515625 322.314013671875 209.582978515625 Q 325.959013671875 209.582978515625 328.794013671875 211.112978515625 Q 331.629013671875 212.642978515625 333.226513671875 215.477978515625 Q 334.824013671875 218.312978515625 334.824013671875 222.092978515625 Z M 326.949013671875 220.067978515625 Q 326.949013671875 218.087978515625 325.599013671875 216.917978515625 Q 324.249013671875 215.747978515625 322.224013671875 215.747978515625 Q 320.289013671875 215.747978515625 318.961513671875 216.872978515625 Q 317.634013671875 217.997978515625 317.319013671875 220.067978515625 Z M 362.94693969726563 213.632978515625 Q 362.94693969726563 216.377978515625 361.68693969726564 218.650478515625 Q 360.42693969726565 220.922978515625 357.81693969726564 222.317978515625 Q 355.2069396972656 223.712978515625 351.3369396972656 223.712978515625 L 346.56693969726564 223.712978515625 L 346.56693969726564 235.052978515625 L 338.87193969726565 235.052978515625 L 338.87193969726565 203.462978515625 L 351.3369396972656 203.462978515625 Q 355.11693969726565 203.462978515625 357.7269396972656 204.767978515625 Q 360.3369396972656 206.072978515625 361.6419396972656 208.367978515625 Q 362.94693969726563 210.662978515625 362.94693969726563 213.632978515625 Z M 350.75193969726564 217.592978515625 Q 352.9569396972656 217.592978515625 354.0369396972656 216.557978515625 Q 355.11693969726565 215.522978515625 355.11693969726565 213.632978515625 Q 355.11693969726565 211.742978515625 354.0369396972656 210.707978515625 Q 352.9569396972656 209.672978515625 350.75193969726564 209.672978515625 L 346.56693969726564 209.672978515625 L 346.56693969726564 217.592978515625 L 350.75193969726564 217.592978515625 Z M 377.16814697265625 235.412978515625 Q 373.8831469726563 235.412978515625 371.3181469726562 234.287978515625 Q 368.7531469726562 233.162978515625 367.26814697265627 231.205478515625 Q 365.78314697265625 229.247978515625 365.60314697265625 226.817978515625 L 373.20814697265627 226.817978515625 Q 373.34314697265626 228.122978515625 374.42314697265624 228.932978515625 Q 375.5031469726562 229.742978515625 377.07814697265627 229.742978515625 Q 378.51814697265627 229.742978515625 379.30564697265623 229.180478515625 Q 380.09314697265626 228.617978515625 380.09314697265626 227.717978515625 Q 380.09314697265626 226.637978515625 378.96814697265626 226.120478515625 Q 377.84314697265626 225.602978515625 375.3231469726563 224.972978515625 Q 372.62314697265623 224.342978515625 370.8231469726563 223.645478515625 Q 369.02314697265626 222.947978515625 367.71814697265626 221.440478515625 Q 366.41314697265625 219.932978515625 366.41314697265625 217.367978515625 Q 366.41314697265625 215.207978515625 367.60564697265625 213.430478515625 Q 368.79814697265624 211.652978515625 371.11564697265624 210.617978515625 Q 373.43314697265623 209.582978515625 376.6281469726562 209.582978515625 Q 381.35314697265625 209.582978515625 384.0756469726563 211.922978515625 Q 386.79814697265624 214.262978515625 387.20314697265627 218.132978515625 L 380.09314697265626 218.132978515625 Q 379.91314697265625 216.827978515625 378.9456469726563 216.062978515625 Q 377.97814697265625 215.297978515625 376.40314697265626 215.297978515625 Q 375.05314697265624 215.297978515625 374.33314697265627 215.815478515625 Q 373.61314697265624 216.332978515625 373.61314697265624 217.232978515625 Q 373.61314697265624 218.312978515625 374.7606469726563 218.852978515625 Q 375.90814697265625 219.392978515625 378.33814697265626 219.932978515625 Q 381.1281469726562 220.652978515625 382.8831469726563 221.350478515625 Q 384.6381469726563 222.047978515625 385.96564697265626 223.600478515625 Q 387.29314697265625 225.152978515625 387.33814697265626 227.762978515625 Q 387.33814697265626 229.967978515625 386.10064697265625 231.700478515625 Q 384.86314697265624 233.432978515625 382.54564697265624 234.422978515625 Q 380.22814697265625 235.412978515625 377.16814697265625 235.412978515625 Z M 417.71008056640625 209.942978515625 L 401.96008056640625 246.977978515625 L 393.6800805664063 246.977978515625 L 399.44008056640627 234.197978515625 L 389.22508056640623 209.942978515625 L 397.82008056640626 209.942978515625 L 403.62508056640627 225.647978515625 L 409.38508056640626 209.942978515625 Z M 418.9697473144531 222.497978515625 Q 418.9697473144531 218.582978515625 420.56724731445314 215.657978515625 Q 422.1647473144531 212.732978515625 425.0222473144531 211.157978515625 Q 427.87974731445314 209.582978515625 431.56974731445314 209.582978515625 Q 436.2947473144531 209.582978515625 439.4672473144531 212.057978515625 Q 442.63974731445313 214.532978515625 443.62974731445314 219.032978515625 L 435.43974731445314 219.032978515625 Q 434.4047473144531 216.152978515625 431.43474731445315 216.152978515625 Q 429.31974731445314 216.152978515625 428.05974731445315 217.795478515625 Q 426.7997473144531 219.437978515625 426.7997473144531 222.497978515625 Q 426.7997473144531 225.557978515625 428.05974731445315 227.200478515625 Q 429.31974731445314 228.842978515625 431.43474731445315 228.842978515625 Q 434.4047473144531 228.842978515625 435.43974731445314 225.962978515625 L 443.62974731445314 225.962978515625 Q 442.63974731445313 230.372978515625 439.44474731445314 232.892978515625 Q 436.24974731445315 235.412978515625 431.56974731445314 235.412978515625 Q 427.87974731445314 235.412978515625 425.0222473144531 233.837978515625 Q 422.1647473144531 232.262978515625 420.56724731445314 229.337978515625 Q 418.9697473144531 226.412978515625 418.9697473144531 222.497978515625 Z M 463.1585632324219 209.672978515625 Q 467.4785632324219 209.672978515625 470.08856323242185 212.530478515625 Q 472.69856323242186 215.387978515625 472.69856323242186 220.382978515625 L 472.69856323242186 235.052978515625 L 465.0485632324219 235.052978515625 L 465.0485632324219 221.417978515625 Q 465.0485632324219 218.897978515625 463.7435632324219 217.502978515625 Q 462.43856323242187 216.107978515625 460.2335632324219 216.107978515625 Q 458.0285632324219 216.107978515625 456.7235632324219 217.502978515625 Q 455.4185632324219 218.897978515625 455.4185632324219 221.417978515625 L 455.4185632324219 235.052978515625 L 447.7235632324219 235.052978515625 L 447.7235632324219 201.752978515625 L 455.4185632324219 201.752978515625 L 455.4185632324219 213.317978515625 Q 456.58856323242185 211.652978515625 458.6135632324219 210.662978515625 Q 460.63856323242186 209.672978515625 463.1585632324219 209.672978515625 Z" style="fill: rgb(63, 81, 181); white-space: pre;"/>
</svg>