<?xml version="1.0" encoding="utf-8"?>
<svg viewBox="270.746 155.384 144.953 129.016" xmlns="http://www.w3.org/2000/svg">
    <circle style="fill: rgb(255, 64, 129);" cx="343.806" cy="199.407" r="44.023"/>
    <path style="opacity: 0.1;" d="M 360.242 179.459 L 360.069 179.286 L 360.045 179.29 C 359.359 178.717 358.528 178.322 357.61 178.155 L 356.208 176.754 L 356.201 176.76 C 355.325 175.903 354.133 175.376 352.849 175.376 C 352.373 175.376 351.905 175.45 351.455 175.588 C 350.749 174.716 349.667 174.184 348.511 174.184 C 346.438 174.184 344.76 175.844 344.76 177.871 L 344.76 178.293 L 341.856 175.388 C 341.789 175.317 341.722 175.248 341.649 175.181 L 341.562 175.094 L 341.554 175.104 C 340.896 174.539 340.045 174.184 339.102 174.184 C 337.945 174.184 336.863 174.716 336.157 175.587 C 335.708 175.449 335.24 175.376 334.763 175.376 C 332.91 175.376 331.232 176.458 330.452 178.072 C 327.874 178.311 325.821 180.392 325.701 182.97 C 323.243 183.401 321.372 185.51 321.372 188.051 C 321.372 188.666 321.482 189.271 321.693 189.84 C 319.758 191.179 318.584 193.371 318.584 195.737 C 318.584 197.03 318.923 198.268 319.584 199.37 C 318.932 200.36 318.584 201.525 318.584 202.707 C 318.584 204.827 319.684 206.761 321.464 207.881 C 320.987 208.825 320.73 209.862 320.73 210.925 C 320.73 213.988 322.776 216.612 325.692 217.455 C 325.719 218.796 326.268 220.011 327.143 220.916 L 327.145 220.918 C 327.205 220.979 327.264 221.041 327.327 221.1 L 349.304 243.077 C 368.692 240.66 384.162 225.645 387.258 206.474 L 360.59 179.807 C 360.479 179.685 360.363 179.571 360.242 179.459 Z"/>
    <path style="fill: rgb(63, 81, 181);" d="M 369.028 195.739 C 369.028 193.373 367.855 191.183 365.914 189.842 C 366.129 189.271 366.241 188.663 366.241 188.05 C 366.241 185.513 364.371 183.398 361.915 182.966 C 361.789 180.394 359.741 178.311 357.155 178.077 C 356.384 176.46 354.702 175.38 352.852 175.38 C 352.375 175.38 351.903 175.45 351.452 175.587 C 350.748 174.716 349.669 174.184 348.51 174.184 C 346.441 174.184 344.757 175.84 344.757 177.873 L 344.757 191.069 C 344.757 192.675 345.486 194.19 346.689 195.221 C 345.474 196.314 344.757 197.87 344.757 199.534 L 344.757 207.655 C 344.757 208.639 345.005 209.593 345.479 210.448 C 345.006 211.269 344.757 212.192 344.757 213.151 L 344.757 219.464 C 344.757 222.311 347.114 224.629 350.01 224.629 C 351.905 224.629 353.611 223.64 354.539 222.083 C 355.205 222.374 355.925 222.524 356.667 222.524 C 359.53 222.524 361.867 220.259 361.919 217.458 C 364.837 216.615 366.878 213.988 366.878 210.923 C 366.878 209.858 366.628 208.824 366.149 207.885 C 367.925 206.765 369.026 204.827 369.026 202.705 C 369.026 201.522 368.676 200.361 368.029 199.373 C 368.685 198.272 369.028 197.027 369.028 195.739 Z"/>
    <path style="fill: rgb(117, 125, 232);" d="M 365.276 206.241 C 363.993 204.053 361.423 203.607 360.081 203.537 C 359.816 202.445 359.199 201.456 358.295 200.724 C 357.897 200.401 357.309 200.457 356.983 200.849 C 356.656 201.24 356.712 201.818 357.11 202.139 C 357.906 202.784 358.363 203.734 358.363 204.745 C 358.363 206.606 356.823 208.12 354.933 208.12 C 353.042 208.12 351.503 206.607 351.503 204.745 C 351.503 203.937 351.798 203.157 352.334 202.546 C 352.345 202.532 352.348 202.514 352.36 202.499 C 352.618 202.462 352.874 202.405 353.128 202.313 C 355.089 201.593 356.089 199.44 355.359 197.511 C 355.177 197.037 354.642 196.8 354.159 196.973 C 353.676 197.149 353.43 197.679 353.61 198.153 C 353.981 199.133 353.473 200.228 352.475 200.593 C 351.477 200.959 350.364 200.459 349.991 199.478 C 349.812 199.003 349.274 198.763 348.792 198.94 C 348.31 199.116 348.064 199.645 348.245 200.12 C 348.621 201.112 349.387 201.845 350.306 202.234 C 349.877 202.999 349.638 203.86 349.638 204.745 C 349.638 207.617 352.013 209.954 354.934 209.954 C 357.633 209.954 359.863 207.956 360.185 205.386 C 361.335 205.481 363.352 205.917 363.962 207.805 C 363.99 207.891 364.032 207.965 364.081 208.036 C 364.086 208.042 364.086 208.051 364.09 208.057 C 364.695 208.9 365.015 209.892 365.015 210.925 C 365.015 213.01 363.716 214.809 361.815 215.545 C 361.517 213.751 360.318 212.584 360.255 212.526 C 359.882 212.177 359.292 212.193 358.936 212.56 C 358.582 212.927 358.598 213.509 358.971 213.857 C 358.984 213.868 360.185 215.039 360.015 216.646 C 360.01 216.686 360.025 216.722 360.026 216.761 C 360.027 216.8 360.014 216.837 360.02 216.877 C 360.045 217.036 360.057 217.198 360.057 217.361 C 360.057 219.198 358.538 220.692 356.67 220.692 C 356.216 220.692 355.778 220.594 355.369 220.425 C 355.783 219.337 355.857 217.699 354.578 215.951 C 355.195 214.942 355.182 213.624 354.437 212.609 C 354.135 212.2 353.551 212.105 353.135 212.403 C 352.718 212.7 352.625 213.273 352.926 213.683 C 353.32 214.218 353.197 214.968 352.652 215.355 C 352.109 215.742 351.345 215.622 350.95 215.087 C 350.647 214.675 350.064 214.584 349.648 214.88 C 349.23 215.177 349.138 215.75 349.439 216.16 C 350.041 216.98 350.986 217.415 351.943 217.415 C 352.357 217.415 352.77 217.325 353.163 217.159 C 354.329 218.868 353.5 220.069 353.383 220.22 C 353.331 220.285 353.306 220.36 353.274 220.432 C 353.263 220.457 353.24 220.475 353.23 220.5 C 352.774 221.872 351.481 222.794 350.012 222.794 C 348.145 222.794 346.625 221.299 346.625 219.463 L 346.625 213.15 C 346.625 212.7 346.716 212.266 346.873 211.856 C 347.705 212.395 349.04 213.01 350.878 213.01 C 350.965 213.01 351.054 213.01 351.143 213.005 C 351.658 212.99 352.062 212.566 352.044 212.061 C 352.028 211.564 351.614 211.172 351.114 211.172 C 351.103 211.172 351.093 211.172 351.083 211.173 C 351.013 211.175 350.944 211.176 350.877 211.176 C 348.738 211.176 347.539 210.104 347.319 209.887 C 346.867 209.225 346.623 208.456 346.623 207.653 L 346.623 199.535 C 346.623 198.059 347.446 196.704 348.769 196.003 C 348.791 195.991 348.808 195.974 348.829 195.96 C 348.841 195.952 348.854 195.952 348.867 195.943 C 349.071 195.803 350.915 194.623 352.862 196.253 C 353.038 196.401 353.253 196.471 353.468 196.471 C 353.73 196.471 353.993 196.363 354.179 196.149 C 354.512 195.764 354.465 195.184 354.073 194.856 C 351.924 193.057 349.609 193.488 348.317 194.135 C 347.276 193.465 346.623 192.309 346.623 191.069 L 346.623 177.873 C 346.623 176.851 347.47 176.019 348.51 176.019 C 349.164 176.019 349.753 176.368 350.095 176.906 C 349.93 177.653 349.537 178.689 348.965 179.022 C 348.521 179.28 348.375 179.843 348.637 180.279 C 348.812 180.567 349.122 180.728 349.441 180.728 C 349.602 180.728 349.767 180.686 349.914 180.599 C 351.155 179.877 351.689 178.258 351.893 177.397 C 352.2 177.289 352.521 177.215 352.851 177.215 C 354.086 177.215 355.191 178.009 355.58 179.155 C 355.591 179.662 355.559 181.693 354.409 182.958 C 353.968 183.446 353.408 183.759 352.722 183.916 C 352.514 182.96 351.827 182.126 350.821 181.781 C 350.34 181.613 349.804 181.866 349.633 182.345 C 349.464 182.823 349.72 183.345 350.208 183.512 C 350.77 183.705 351.068 184.311 350.873 184.864 C 350.677 185.417 350.061 185.712 349.498 185.518 C 349.009 185.351 348.481 185.603 348.311 186.081 C 348.142 186.559 348.398 187.082 348.885 187.248 C 349.205 187.358 349.53 187.411 349.851 187.411 C 350.951 187.411 351.984 186.796 352.485 185.798 C 353.843 185.633 354.97 185.102 355.811 184.171 C 357 182.854 357.334 181.092 357.42 179.979 C 358.926 180.317 360.055 181.639 360.055 183.219 C 360.055 183.374 360.043 183.529 360.022 183.68 C 360.012 183.747 360.035 183.811 360.043 183.877 C 359.979 184.455 359.723 185.448 359.288 185.723 C 358.856 185.999 358.732 186.566 359.011 186.992 C 359.191 187.264 359.49 187.412 359.796 187.412 C 359.97 187.412 360.144 187.363 360.301 187.265 C 361.18 186.707 361.584 185.62 361.77 184.82 C 363.26 185.169 364.375 186.481 364.375 188.051 C 364.375 188.33 364.336 188.607 364.265 188.877 C 362.66 188.156 360.053 187.783 357.351 189.532 C 356.562 189.026 355.639 188.772 354.687 188.831 C 353.521 188.908 352.455 189.426 351.684 190.291 C 351.345 190.672 351.384 191.251 351.772 191.585 C 352.158 191.917 352.746 191.881 353.088 191.498 C 353.529 191.003 354.14 190.705 354.809 190.662 C 355.474 190.621 356.124 190.834 356.628 191.269 C 357.669 192.165 357.775 193.726 356.862 194.751 C 356.523 195.131 356.562 195.711 356.949 196.045 C 357.127 196.197 357.346 196.272 357.564 196.272 C 357.823 196.272 358.081 196.166 358.266 195.958 C 359.559 194.505 359.658 192.442 358.681 190.877 C 361.665 189.156 364.041 190.841 364.152 190.922 C 364.173 190.938 364.198 190.942 364.22 190.955 C 364.241 190.967 364.253 190.988 364.274 190.999 C 366.054 191.939 367.16 193.756 367.16 195.739 C 367.16 196.459 367.001 197.153 366.724 197.805 C 366.025 197.233 365.282 197.014 364.712 196.941 C 364.369 195.487 363.282 194.28 361.795 193.812 C 361.31 193.66 360.779 193.924 360.623 194.407 C 360.465 194.887 360.735 195.405 361.227 195.559 C 362.247 195.881 362.948 196.805 362.97 197.86 C 362.989 198.747 362.517 199.579 361.74 200.034 C 361.297 200.293 361.152 200.856 361.415 201.291 C 361.589 201.579 361.899 201.739 362.217 201.739 C 362.38 201.739 362.544 201.698 362.694 201.61 C 363.752 200.991 364.478 199.965 364.732 198.809 C 365.15 198.918 365.676 199.192 366.104 199.879 C 366.118 199.902 366.138 199.918 366.153 199.939 C 366.163 199.952 366.166 199.967 366.176 199.979 C 366.819 200.758 367.16 201.7 367.16 202.703 C 367.162 204.137 366.439 205.443 365.276 206.241 Z"/>
    <path style="fill: rgb(63, 81, 181);" d="M 319.581 199.372 C 318.935 200.361 318.583 201.522 318.583 202.704 C 318.583 204.827 319.685 206.765 321.46 207.884 C 320.983 208.823 320.733 209.858 320.733 210.923 C 320.733 213.986 322.773 216.613 325.691 217.457 C 325.744 220.26 328.08 222.523 330.943 222.523 C 331.685 222.523 332.406 222.373 333.071 222.082 C 333.999 223.64 335.706 224.628 337.601 224.628 C 340.496 224.628 342.853 222.311 342.853 219.464 L 342.853 213.15 C 342.853 212.191 342.606 211.267 342.131 210.447 C 342.604 209.592 342.853 208.638 342.853 207.654 L 342.853 199.535 C 342.853 197.871 342.137 196.316 340.922 195.222 C 342.125 194.19 342.853 192.675 342.853 191.07 L 342.853 177.873 C 342.853 175.84 341.17 174.185 339.1 174.185 C 337.941 174.185 336.862 174.716 336.159 175.588 C 335.708 175.452 335.235 175.38 334.759 175.38 C 332.91 175.38 331.226 176.46 330.456 178.077 C 327.87 178.311 325.822 180.394 325.696 182.966 C 323.24 183.398 321.37 185.513 321.37 188.05 C 321.37 188.664 321.482 189.271 321.697 189.842 C 319.756 191.183 318.583 193.373 318.583 195.74 C 318.583 197.027 318.926 198.272 319.581 199.372 Z"/>
    <path style="fill: rgb(117, 125, 232);" d="M 320.448 202.704 C 320.448 201.7 320.789 200.758 321.433 199.979 C 321.444 199.967 321.447 199.952 321.456 199.94 C 321.472 199.918 321.492 199.903 321.506 199.879 C 321.933 199.192 322.46 198.918 322.878 198.809 C 323.13 199.966 323.856 200.991 324.916 201.61 C 325.065 201.698 325.23 201.739 325.39 201.739 C 325.709 201.739 326.019 201.579 326.193 201.291 C 326.456 200.855 326.31 200.293 325.867 200.034 C 325.091 199.58 324.62 198.747 324.639 197.86 C 324.661 196.807 325.361 195.881 326.381 195.559 C 326.872 195.405 327.143 194.889 326.986 194.407 C 326.828 193.925 326.299 193.661 325.813 193.812 C 324.325 194.281 323.239 195.487 322.896 196.942 C 322.326 197.015 321.585 197.233 320.883 197.806 C 320.607 197.154 320.448 196.459 320.448 195.739 C 320.448 193.756 321.554 191.939 323.333 191 C 323.355 190.989 323.369 190.968 323.388 190.955 C 323.41 190.941 323.436 190.939 323.457 190.923 C 323.568 190.841 325.943 189.155 328.927 190.877 C 327.95 192.441 328.049 194.505 329.342 195.958 C 329.527 196.166 329.786 196.272 330.044 196.272 C 330.263 196.272 330.482 196.198 330.658 196.045 C 331.046 195.711 331.086 195.132 330.746 194.752 C 329.835 193.727 329.939 192.165 330.98 191.269 C 331.485 190.834 332.134 190.622 332.801 190.663 C 333.469 190.706 334.081 191.003 334.522 191.498 C 334.863 191.881 335.452 191.917 335.838 191.585 C 336.226 191.251 336.265 190.672 335.926 190.291 C 335.156 189.426 334.089 188.908 332.923 188.832 C 331.97 188.772 331.047 189.027 330.259 189.532 C 327.556 187.783 324.948 188.157 323.344 188.877 C 323.274 188.608 323.235 188.331 323.235 188.051 C 323.235 186.481 324.35 185.168 325.84 184.82 C 326.024 185.62 326.429 186.707 327.308 187.265 C 327.465 187.363 327.64 187.412 327.813 187.412 C 328.12 187.412 328.42 187.264 328.597 186.992 C 328.877 186.567 328.754 185.999 328.32 185.724 C 327.887 185.449 327.632 184.456 327.567 183.877 C 327.574 183.812 327.597 183.748 327.588 183.68 C 327.567 183.53 327.554 183.375 327.554 183.219 C 327.554 181.638 328.683 180.318 330.189 179.979 C 330.275 181.093 330.608 182.854 331.799 184.172 C 332.641 185.102 333.767 185.634 335.123 185.799 C 335.626 186.797 336.658 187.411 337.759 187.411 C 338.081 187.411 338.405 187.358 338.725 187.249 C 339.211 187.082 339.469 186.559 339.299 186.081 C 339.13 185.604 338.6 185.351 338.111 185.518 C 337.549 185.712 336.934 185.418 336.738 184.864 C 336.542 184.311 336.84 183.705 337.403 183.513 C 337.889 183.345 338.146 182.823 337.977 182.345 C 337.806 181.867 337.271 181.614 336.789 181.781 C 335.783 182.126 335.096 182.961 334.888 183.917 C 334.202 183.76 333.642 183.446 333.2 182.958 C 332.051 181.693 332.019 179.662 332.029 179.155 C 332.419 178.009 333.525 177.215 334.76 177.215 C 335.09 177.215 335.411 177.29 335.718 177.397 C 335.922 178.258 336.456 179.877 337.696 180.6 C 337.845 180.686 338.01 180.728 338.17 180.728 C 338.489 180.728 338.799 180.567 338.973 180.279 C 339.236 179.842 339.09 179.28 338.647 179.022 C 338.074 178.689 337.681 177.655 337.516 176.907 C 337.858 176.369 338.447 176.019 339.1 176.019 C 340.141 176.019 340.987 176.852 340.987 177.874 L 340.987 191.069 C 340.987 192.309 340.335 193.466 339.293 194.135 C 338.001 193.488 335.687 193.057 333.539 194.856 C 333.146 195.184 333.099 195.764 333.433 196.149 C 333.618 196.362 333.88 196.472 334.144 196.472 C 334.357 196.472 334.573 196.401 334.748 196.254 C 336.696 194.623 338.541 195.803 338.743 195.944 C 338.755 195.952 338.768 195.952 338.781 195.96 C 338.802 195.974 338.818 195.991 338.841 196.004 C 340.164 196.705 340.987 198.059 340.987 199.535 L 340.987 207.656 C 340.987 208.458 340.744 209.228 340.292 209.89 C 340.071 210.107 338.872 211.179 336.734 211.179 C 336.666 211.179 336.599 211.178 336.528 211.176 C 336.518 211.175 336.508 211.175 336.497 211.175 C 335.996 211.175 335.582 211.567 335.567 212.063 C 335.548 212.569 335.952 212.993 336.468 213.009 C 336.557 213.012 336.646 213.014 336.733 213.014 C 338.571 213.014 339.906 212.398 340.737 211.858 C 340.894 212.269 340.986 212.704 340.986 213.154 L 340.986 219.467 C 340.986 221.303 339.466 222.797 337.599 222.797 C 336.13 222.797 334.837 221.875 334.38 220.504 C 334.372 220.477 334.348 220.46 334.337 220.435 C 334.306 220.363 334.28 220.289 334.228 220.224 C 334.111 220.072 333.283 218.872 334.448 217.162 C 334.841 217.329 335.254 217.418 335.669 217.418 C 336.626 217.418 337.57 216.983 338.173 216.164 C 338.474 215.754 338.381 215.181 337.963 214.884 C 337.547 214.587 336.963 214.678 336.66 215.09 C 336.266 215.625 335.502 215.745 334.959 215.358 C 334.415 214.971 334.291 214.221 334.685 213.687 C 334.987 213.276 334.892 212.703 334.475 212.406 C 334.058 212.109 333.474 212.201 333.172 212.613 C 332.427 213.626 332.415 214.944 333.032 215.955 C 331.754 217.703 331.827 219.34 332.242 220.429 C 331.832 220.597 331.394 220.695 330.94 220.695 C 329.072 220.695 327.552 219.201 327.552 217.365 C 327.552 217.199 327.565 217.038 327.59 216.88 C 327.596 216.84 327.584 216.803 327.584 216.764 C 327.585 216.724 327.6 216.689 327.596 216.649 C 327.425 215.043 328.626 213.871 328.639 213.86 C 329.012 213.511 329.028 212.93 328.674 212.564 C 328.318 212.196 327.728 212.18 327.356 212.529 C 327.293 212.588 326.093 213.755 325.794 215.549 C 323.895 214.813 322.595 213.014 322.595 210.928 C 322.595 209.896 322.915 208.904 323.521 208.061 C 323.525 208.055 323.525 208.047 323.53 208.039 C 323.577 207.969 323.62 207.894 323.647 207.809 C 324.257 205.919 326.275 205.484 327.425 205.389 C 327.747 207.959 329.977 209.957 332.677 209.957 C 335.596 209.957 337.973 207.621 337.973 204.749 C 337.973 203.864 337.732 203.002 337.303 202.237 C 338.223 201.849 338.989 201.115 339.365 200.122 C 339.546 199.647 339.301 199.119 338.818 198.943 C 338.337 198.766 337.798 199.007 337.618 199.482 C 337.247 200.461 336.134 200.962 335.135 200.597 C 334.136 200.232 333.628 199.136 334 198.156 C 334.18 197.681 333.935 197.153 333.452 196.976 C 332.968 196.803 332.433 197.04 332.251 197.515 C 331.52 199.443 332.522 201.596 334.482 202.315 C 334.735 202.408 334.992 202.465 335.25 202.503 C 335.261 202.518 335.264 202.535 335.277 202.548 C 335.811 203.161 336.107 203.941 336.107 204.749 C 336.107 206.609 334.568 208.122 332.677 208.122 C 330.785 208.122 329.246 206.61 329.246 204.749 C 329.246 203.738 329.703 202.787 330.499 202.142 C 330.897 201.821 330.954 201.243 330.625 200.852 C 330.299 200.46 329.712 200.406 329.313 200.727 C 328.41 201.459 327.792 202.447 327.529 203.54 C 326.186 203.611 323.617 204.057 322.334 206.244 C 321.172 205.443 320.448 204.137 320.448 202.704 Z"/>
    <path d="M 293.1460070800781 262.27998779296877 Q 293.1460070800781 263.23998779296875 293.0260070800781 264.27998779296877 L 277.54600708007814 264.27998779296877 Q 277.7060070800781 266.35998779296875 278.8860070800781 267.4599877929688 Q 280.0660070800781 268.55998779296874 281.78600708007815 268.55998779296874 Q 284.34600708007815 268.55998779296874 285.34600708007815 266.3999877929688 L 292.6260070800781 266.3999877929688 Q 292.0660070800781 268.59998779296876 290.60600708007814 270.35998779296875 Q 289.1460070800781 272.11998779296874 286.9460070800781 273.11998779296874 Q 284.74600708007813 274.11998779296874 282.0260070800781 274.11998779296874 Q 278.74600708007813 274.11998779296874 276.1860070800781 272.71998779296877 Q 273.6260070800781 271.31998779296873 272.1860070800781 268.71998779296877 Q 270.74600708007813 266.11998779296874 270.74600708007813 262.6399877929687 Q 270.74600708007813 259.15998779296876 272.16600708007815 256.55998779296874 Q 273.5860070800781 253.95998779296875 276.1460070800781 252.55998779296874 Q 278.7060070800781 251.15998779296876 282.0260070800781 251.15998779296876 Q 285.2660070800781 251.15998779296876 287.78600708007815 252.51998779296875 Q 290.30600708007813 253.87998779296873 291.72600708007815 256.3999877929688 Q 293.1460070800781 258.91998779296875 293.1460070800781 262.27998779296877 Z M 286.1460070800781 260.47998779296876 Q 286.1460070800781 258.71998779296877 284.9460070800781 257.67998779296875 Q 283.74600708007813 256.6399877929687 281.9460070800781 256.6399877929687 Q 280.22600708007815 256.6399877929687 279.04600708007814 257.6399877929687 Q 277.86600708007813 258.6399877929687 277.5860070800781 260.47998779296876 Z M 318.1430615234375 254.75998779296876 Q 318.1430615234375 257.1999877929687 317.0230615234375 259.21998779296877 Q 315.9030615234375 261.23998779296875 313.5830615234375 262.47998779296876 Q 311.2630615234375 263.71998779296877 307.8230615234375 263.71998779296877 L 303.5830615234375 263.71998779296877 L 303.5830615234375 273.79998779296875 L 296.7430615234375 273.79998779296875 L 296.7430615234375 245.71998779296874 L 307.8230615234375 245.71998779296874 Q 311.1830615234375 245.71998779296874 313.5030615234375 246.87998779296873 Q 315.8230615234375 248.03998779296876 316.9830615234375 250.07998779296875 Q 318.1430615234375 252.11998779296874 318.1430615234375 254.75998779296876 Z M 307.3030615234375 258.27998779296877 Q 309.2630615234375 258.27998779296877 310.2230615234375 257.35998779296875 Q 311.1830615234375 256.43998779296874 311.1830615234375 254.75998779296876 Q 311.1830615234375 253.07998779296875 310.2230615234375 252.15998779296876 Q 309.2630615234375 251.23998779296875 307.3030615234375 251.23998779296875 L 303.5830615234375 251.23998779296875 L 303.5830615234375 258.27998779296877 L 307.3030615234375 258.27998779296877 Z M 330.78467041015625 274.11998779296874 Q 327.86467041015624 274.11998779296874 325.58467041015626 273.11998779296874 Q 323.30467041015623 272.11998779296874 321.98467041015624 270.37998779296873 Q 320.66467041015625 268.6399877929687 320.5046704101562 266.47998779296876 L 327.26467041015627 266.47998779296876 Q 327.3846704101563 267.6399877929687 328.34467041015625 268.35998779296875 Q 329.30467041015623 269.0799877929687 330.70467041015627 269.0799877929687 Q 331.98467041015624 269.0799877929687 332.68467041015623 268.5799877929687 Q 333.3846704101563 268.0799877929687 333.3846704101563 267.27998779296877 Q 333.3846704101563 266.31998779296873 332.3846704101563 265.85998779296875 Q 331.3846704101563 265.3999877929688 329.14467041015627 264.83998779296877 Q 326.74467041015623 264.27998779296877 325.14467041015627 263.65998779296876 Q 323.54467041015624 263.03998779296876 322.3846704101563 261.6999877929687 Q 321.22467041015625 260.35998779296875 321.22467041015625 258.0799877929687 Q 321.22467041015625 256.15998779296876 322.28467041015625 254.57998779296875 Q 323.34467041015625 252.99998779296874 325.40467041015626 252.07998779296875 Q 327.46467041015626 251.15998779296876 330.30467041015623 251.15998779296876 Q 334.5046704101562 251.15998779296876 336.92467041015624 253.23998779296875 Q 339.34467041015625 255.31998779296876 339.70467041015627 258.75998779296873 L 333.3846704101563 258.75998779296873 Q 333.22467041015625 257.59998779296876 332.36467041015624 256.91998779296875 Q 331.5046704101562 256.23998779296875 330.10467041015625 256.23998779296875 Q 328.90467041015626 256.23998779296875 328.26467041015627 256.6999877929687 Q 327.6246704101562 257.15998779296876 327.6246704101562 257.9599877929688 Q 327.6246704101562 258.91998779296875 328.64467041015627 259.3999877929688 Q 329.66467041015625 259.87998779296873 331.8246704101563 260.35998779296875 Q 334.30467041015623 260.99998779296874 335.86467041015624 261.61998779296874 Q 337.42467041015624 262.23998779296875 338.60467041015625 263.61998779296874 Q 339.78467041015625 264.99998779296874 339.8246704101563 267.31998779296873 Q 339.8246704101563 269.27998779296877 338.72467041015625 270.81998779296873 Q 337.6246704101562 272.35998779296875 335.5646704101562 273.23998779296875 Q 333.5046704101562 274.11998779296874 330.78467041015625 274.11998779296874 Z M 366.8214123535156 251.47998779296876 L 352.8214123535156 284.3999877929688 L 345.46141235351564 284.3999877929688 L 350.58141235351565 273.03998779296876 L 341.5014123535156 251.47998779296876 L 349.14141235351565 251.47998779296876 L 354.3014123535156 265.43998779296874 L 359.4214123535156 251.47998779296876 Z M 367.94275390625 262.6399877929687 Q 367.94275390625 259.15998779296876 369.36275390625 256.55998779296874 Q 370.78275390625 253.95998779296875 373.32275390625 252.55998779296874 Q 375.86275390625 251.15998779296876 379.14275390625 251.15998779296876 Q 383.34275390625 251.15998779296876 386.16275390625 253.35998779296875 Q 388.98275390625 255.55998779296874 389.86275390625 259.55998779296874 L 382.58275390625 259.55998779296874 Q 381.66275390625 256.99998779296874 379.02275390625 256.99998779296874 Q 377.14275390625 256.99998779296874 376.02275390625 258.4599877929688 Q 374.90275390625 259.91998779296875 374.90275390625 262.6399877929687 Q 374.90275390625 265.35998779296875 376.02275390625 266.81998779296873 Q 377.14275390625 268.27998779296877 379.02275390625 268.27998779296877 Q 381.66275390625 268.27998779296877 382.58275390625 265.71998779296877 L 389.86275390625 265.71998779296877 Q 388.98275390625 269.6399877929687 386.14275390625 271.87998779296873 Q 383.30275390625 274.11998779296874 379.14275390625 274.11998779296874 Q 375.86275390625 274.11998779296874 373.32275390625 272.71998779296877 Q 370.78275390625 271.31998779296873 369.36275390625 268.71998779296877 Q 367.94275390625 266.11998779296874 367.94275390625 262.6399877929687 Z M 407.21898193359374 251.23998779296875 Q 411.05898193359377 251.23998779296875 413.37898193359376 253.77998779296874 Q 415.69898193359376 256.31998779296873 415.69898193359376 260.75998779296873 L 415.69898193359376 273.79998779296875 L 408.89898193359375 273.79998779296875 L 408.89898193359375 261.67998779296875 Q 408.89898193359375 259.43998779296874 407.7389819335938 258.1999877929687 Q 406.57898193359375 256.9599877929688 404.6189819335938 256.9599877929688 Q 402.65898193359374 256.9599877929688 401.49898193359377 258.1999877929687 Q 400.33898193359374 259.43998779296874 400.33898193359374 261.67998779296875 L 400.33898193359374 273.79998779296875 L 393.49898193359377 273.79998779296875 L 393.49898193359377 244.19998779296876 L 400.33898193359374 244.19998779296876 L 400.33898193359374 254.47998779296876 Q 401.37898193359376 252.99998779296874 403.1789819335938 252.11998779296874 Q 404.97898193359373 251.23998779296875 407.21898193359374 251.23998779296875 Z" style="fill: rgb(63, 81, 181); white-space: pre;"/>
</svg>