<?xml version="1.0" encoding="utf-8"?>
<svg viewBox="6.643 3.691 255.672 95.491" xmlns="http://www.w3.org/2000/svg">
  <circle style="fill: none; stroke: rgb(255, 64, 129); stroke-width: 2px;" cx="54.995" cy="51.436" r="44.023"/>
  <path style="opacity: 0.1;" d="M 71.432 31.488 L 71.259 31.315 L 71.235 31.319 C 70.549 30.746 69.718 30.351 68.8 30.184 L 67.398 28.783 L 67.391 28.789 C 66.515 27.932 65.323 27.405 64.039 27.405 C 63.563 27.405 63.095 27.479 62.645 27.617 C 61.939 26.745 60.857 26.213 59.701 26.213 C 57.628 26.213 55.95 27.873 55.95 29.9 L 55.95 30.322 L 53.046 27.417 C 52.979 27.346 52.912 27.277 52.839 27.21 L 52.752 27.123 L 52.744 27.133 C 52.086 26.568 51.235 26.213 50.292 26.213 C 49.135 26.213 48.053 26.745 47.347 27.616 C 46.898 27.478 46.43 27.405 45.953 27.405 C 44.1 27.405 42.422 28.487 41.642 30.101 C 39.064 30.34 37.011 32.421 36.891 34.999 C 34.433 35.43 32.562 37.539 32.562 40.08 C 32.562 40.695 32.672 41.3 32.883 41.869 C 30.948 43.208 29.774 45.4 29.774 47.766 C 29.774 49.059 30.113 50.297 30.774 51.399 C 30.122 52.389 29.774 53.554 29.774 54.736 C 29.774 56.856 30.874 58.79 32.654 59.91 C 32.177 60.854 31.92 61.891 31.92 62.954 C 31.92 66.017 33.966 68.641 36.882 69.484 C 36.909 70.825 37.458 72.04 38.333 72.945 L 38.335 72.947 C 38.395 73.008 38.454 73.07 38.517 73.129 L 60.494 95.106 C 79.882 92.689 95.352 77.674 98.448 58.503 L 71.78 31.836 C 71.669 31.714 71.553 31.6 71.432 31.488 Z"/>
  <path style="fill: rgb(255, 64, 129);" d="M 80.218 47.768 C 80.218 45.402 79.045 43.212 77.104 41.871 C 77.319 41.3 77.431 40.692 77.431 40.079 C 77.431 37.542 75.561 35.427 73.105 34.995 C 72.979 32.423 70.931 30.34 68.345 30.106 C 67.574 28.489 65.892 27.409 64.042 27.409 C 63.565 27.409 63.093 27.479 62.642 27.616 C 61.938 26.745 60.859 26.213 59.7 26.213 C 57.631 26.213 55.947 27.869 55.947 29.902 L 55.947 43.098 C 55.947 44.704 56.676 46.219 57.879 47.25 C 56.664 48.343 55.947 49.899 55.947 51.563 L 55.947 59.684 C 55.947 60.668 56.195 61.622 56.669 62.477 C 56.196 63.298 55.947 64.221 55.947 65.18 L 55.947 71.493 C 55.947 74.34 58.304 76.658 61.2 76.658 C 63.095 76.658 64.801 75.669 65.729 74.112 C 66.395 74.403 67.115 74.553 67.857 74.553 C 70.72 74.553 73.057 72.288 73.109 69.487 C 76.027 68.644 78.068 66.017 78.068 62.952 C 78.068 61.887 77.818 60.853 77.339 59.914 C 79.115 58.794 80.216 56.856 80.216 54.734 C 80.216 53.551 79.866 52.39 79.219 51.402 C 79.875 50.301 80.218 49.056 80.218 47.768 Z"/>
  <path style="fill: rgb(255, 121, 176);" d="M 76.466 58.27 C 75.183 56.082 72.613 55.636 71.271 55.566 C 71.006 54.474 70.389 53.485 69.485 52.753 C 69.087 52.43 68.499 52.486 68.173 52.878 C 67.846 53.269 67.902 53.847 68.3 54.168 C 69.096 54.813 69.553 55.763 69.553 56.774 C 69.553 58.635 68.013 60.149 66.123 60.149 C 64.232 60.149 62.693 58.636 62.693 56.774 C 62.693 55.966 62.988 55.186 63.524 54.575 C 63.535 54.561 63.538 54.543 63.55 54.528 C 63.808 54.491 64.064 54.434 64.318 54.342 C 66.279 53.622 67.279 51.469 66.549 49.54 C 66.367 49.066 65.832 48.829 65.349 49.002 C 64.866 49.178 64.62 49.708 64.8 50.182 C 65.171 51.162 64.663 52.257 63.665 52.622 C 62.667 52.988 61.554 52.488 61.181 51.507 C 61.002 51.032 60.464 50.792 59.982 50.969 C 59.5 51.145 59.254 51.674 59.435 52.149 C 59.811 53.141 60.577 53.874 61.496 54.263 C 61.067 55.028 60.828 55.889 60.828 56.774 C 60.828 59.646 63.203 61.983 66.124 61.983 C 68.823 61.983 71.053 59.985 71.375 57.415 C 72.525 57.51 74.542 57.946 75.152 59.834 C 75.18 59.92 75.222 59.994 75.271 60.065 C 75.276 60.071 75.276 60.08 75.28 60.086 C 75.885 60.929 76.205 61.921 76.205 62.954 C 76.205 65.039 74.906 66.838 73.005 67.574 C 72.707 65.78 71.508 64.613 71.445 64.555 C 71.072 64.206 70.482 64.222 70.126 64.589 C 69.772 64.956 69.788 65.538 70.161 65.886 C 70.174 65.897 71.375 67.068 71.205 68.675 C 71.2 68.715 71.215 68.751 71.216 68.79 C 71.217 68.829 71.204 68.866 71.21 68.906 C 71.235 69.065 71.247 69.227 71.247 69.39 C 71.247 71.227 69.728 72.721 67.86 72.721 C 67.406 72.721 66.968 72.623 66.559 72.454 C 66.973 71.366 67.047 69.728 65.768 67.98 C 66.385 66.971 66.372 65.653 65.627 64.638 C 65.325 64.229 64.741 64.134 64.325 64.432 C 63.908 64.729 63.815 65.302 64.116 65.712 C 64.51 66.247 64.387 66.997 63.842 67.384 C 63.299 67.771 62.535 67.651 62.14 67.116 C 61.837 66.704 61.254 66.613 60.838 66.909 C 60.42 67.206 60.328 67.779 60.629 68.189 C 61.231 69.009 62.176 69.444 63.133 69.444 C 63.547 69.444 63.96 69.354 64.353 69.188 C 65.519 70.897 64.69 72.098 64.573 72.249 C 64.521 72.314 64.496 72.389 64.464 72.461 C 64.453 72.486 64.43 72.504 64.42 72.529 C 63.964 73.901 62.671 74.823 61.202 74.823 C 59.335 74.823 57.815 73.328 57.815 71.492 L 57.815 65.179 C 57.815 64.729 57.906 64.295 58.063 63.885 C 58.895 64.424 60.23 65.039 62.068 65.039 C 62.155 65.039 62.244 65.039 62.333 65.034 C 62.848 65.019 63.252 64.595 63.234 64.09 C 63.218 63.593 62.804 63.201 62.304 63.201 C 62.293 63.201 62.283 63.201 62.273 63.202 C 62.203 63.204 62.134 63.205 62.067 63.205 C 59.928 63.205 58.729 62.133 58.509 61.916 C 58.057 61.254 57.813 60.485 57.813 59.682 L 57.813 51.564 C 57.813 50.088 58.636 48.733 59.959 48.032 C 59.981 48.02 59.998 48.003 60.019 47.989 C 60.031 47.981 60.044 47.981 60.057 47.972 C 60.261 47.832 62.105 46.652 64.052 48.282 C 64.228 48.43 64.443 48.5 64.658 48.5 C 64.92 48.5 65.183 48.392 65.369 48.178 C 65.702 47.793 65.655 47.213 65.263 46.885 C 63.114 45.086 60.799 45.517 59.507 46.164 C 58.466 45.494 57.813 44.338 57.813 43.098 L 57.813 29.902 C 57.813 28.88 58.66 28.048 59.7 28.048 C 60.354 28.048 60.943 28.397 61.285 28.935 C 61.12 29.682 60.727 30.718 60.155 31.051 C 59.711 31.309 59.565 31.872 59.827 32.308 C 60.002 32.596 60.312 32.757 60.631 32.757 C 60.792 32.757 60.957 32.715 61.104 32.628 C 62.345 31.906 62.879 30.287 63.083 29.426 C 63.39 29.318 63.711 29.244 64.041 29.244 C 65.276 29.244 66.381 30.038 66.77 31.184 C 66.781 31.691 66.749 33.722 65.599 34.987 C 65.158 35.475 64.598 35.788 63.912 35.945 C 63.704 34.989 63.017 34.155 62.011 33.81 C 61.53 33.642 60.994 33.895 60.823 34.374 C 60.654 34.852 60.91 35.374 61.398 35.541 C 61.96 35.734 62.258 36.34 62.063 36.893 C 61.867 37.446 61.251 37.741 60.688 37.547 C 60.199 37.38 59.671 37.632 59.501 38.11 C 59.332 38.588 59.588 39.111 60.075 39.277 C 60.395 39.387 60.72 39.44 61.041 39.44 C 62.141 39.44 63.174 38.825 63.675 37.827 C 65.033 37.662 66.16 37.131 67.001 36.2 C 68.19 34.883 68.524 33.121 68.61 32.008 C 70.116 32.346 71.245 33.668 71.245 35.248 C 71.245 35.403 71.233 35.558 71.212 35.709 C 71.202 35.776 71.225 35.84 71.233 35.906 C 71.169 36.484 70.913 37.477 70.478 37.752 C 70.046 38.028 69.922 38.595 70.201 39.021 C 70.381 39.293 70.68 39.441 70.986 39.441 C 71.16 39.441 71.334 39.392 71.491 39.294 C 72.37 38.736 72.774 37.649 72.96 36.849 C 74.45 37.198 75.565 38.51 75.565 40.08 C 75.565 40.359 75.526 40.636 75.455 40.906 C 73.85 40.185 71.243 39.812 68.541 41.561 C 67.752 41.055 66.829 40.801 65.877 40.86 C 64.711 40.937 63.645 41.455 62.874 42.32 C 62.535 42.701 62.574 43.28 62.962 43.614 C 63.348 43.946 63.936 43.91 64.278 43.527 C 64.719 43.032 65.33 42.734 65.999 42.691 C 66.664 42.65 67.314 42.863 67.818 43.298 C 68.859 44.194 68.965 45.755 68.052 46.78 C 67.713 47.16 67.752 47.74 68.139 48.074 C 68.317 48.226 68.536 48.301 68.754 48.301 C 69.013 48.301 69.271 48.195 69.456 47.987 C 70.749 46.534 70.848 44.471 69.871 42.906 C 72.855 41.185 75.231 42.87 75.342 42.951 C 75.363 42.967 75.388 42.971 75.41 42.984 C 75.431 42.996 75.443 43.017 75.464 43.028 C 77.244 43.968 78.35 45.785 78.35 47.768 C 78.35 48.488 78.191 49.182 77.914 49.834 C 77.215 49.262 76.472 49.043 75.902 48.97 C 75.559 47.516 74.472 46.309 72.985 45.841 C 72.5 45.689 71.969 45.953 71.813 46.436 C 71.655 46.916 71.925 47.434 72.417 47.588 C 73.437 47.91 74.138 48.834 74.16 49.889 C 74.179 50.776 73.707 51.608 72.93 52.063 C 72.487 52.322 72.342 52.885 72.605 53.32 C 72.779 53.608 73.089 53.768 73.407 53.768 C 73.57 53.768 73.734 53.727 73.884 53.639 C 74.942 53.02 75.668 51.994 75.922 50.838 C 76.34 50.947 76.866 51.221 77.294 51.908 C 77.308 51.931 77.328 51.947 77.343 51.968 C 77.353 51.981 77.356 51.996 77.366 52.008 C 78.009 52.787 78.35 53.729 78.35 54.732 C 78.352 56.166 77.629 57.472 76.466 58.27 Z"/>
  <path style="fill: rgb(255, 64, 129);" d="M 30.771 51.401 C 30.125 52.39 29.773 53.551 29.773 54.733 C 29.773 56.856 30.875 58.794 32.65 59.913 C 32.173 60.852 31.923 61.887 31.923 62.952 C 31.923 66.015 33.963 68.642 36.881 69.486 C 36.934 72.289 39.27 74.552 42.133 74.552 C 42.875 74.552 43.596 74.402 44.261 74.111 C 45.189 75.669 46.896 76.657 48.791 76.657 C 51.686 76.657 54.043 74.34 54.043 71.493 L 54.043 65.179 C 54.043 64.22 53.796 63.296 53.321 62.476 C 53.794 61.621 54.043 60.667 54.043 59.683 L 54.043 51.564 C 54.043 49.9 53.327 48.345 52.112 47.251 C 53.315 46.219 54.043 44.704 54.043 43.099 L 54.043 29.902 C 54.043 27.869 52.36 26.214 50.29 26.214 C 49.131 26.214 48.052 26.745 47.349 27.617 C 46.898 27.481 46.425 27.409 45.949 27.409 C 44.1 27.409 42.416 28.489 41.646 30.106 C 39.06 30.34 37.012 32.423 36.886 34.995 C 34.43 35.427 32.56 37.542 32.56 40.079 C 32.56 40.693 32.672 41.3 32.887 41.871 C 30.946 43.212 29.773 45.402 29.773 47.769 C 29.773 49.056 30.116 50.301 30.771 51.401 Z"/>
  <path style="fill: rgb(255, 121, 176);" d="M 31.638 54.733 C 31.638 53.729 31.979 52.787 32.623 52.008 C 32.634 51.996 32.637 51.981 32.646 51.969 C 32.662 51.947 32.682 51.932 32.696 51.908 C 33.123 51.221 33.65 50.947 34.068 50.838 C 34.32 51.995 35.046 53.02 36.106 53.639 C 36.255 53.727 36.42 53.768 36.58 53.768 C 36.899 53.768 37.209 53.608 37.383 53.32 C 37.646 52.884 37.5 52.322 37.057 52.063 C 36.281 51.609 35.81 50.776 35.829 49.889 C 35.851 48.836 36.551 47.91 37.571 47.588 C 38.062 47.434 38.333 46.918 38.176 46.436 C 38.018 45.954 37.489 45.69 37.003 45.841 C 35.515 46.31 34.429 47.516 34.086 48.971 C 33.516 49.044 32.775 49.262 32.073 49.835 C 31.797 49.183 31.638 48.488 31.638 47.768 C 31.638 45.785 32.744 43.968 34.523 43.029 C 34.545 43.018 34.559 42.997 34.578 42.984 C 34.6 42.97 34.626 42.968 34.647 42.952 C 34.758 42.87 37.133 41.184 40.117 42.906 C 39.14 44.47 39.239 46.534 40.532 47.987 C 40.717 48.195 40.976 48.301 41.234 48.301 C 41.453 48.301 41.672 48.227 41.848 48.074 C 42.236 47.74 42.276 47.161 41.936 46.781 C 41.025 45.756 41.129 44.194 42.17 43.298 C 42.675 42.863 43.324 42.651 43.991 42.692 C 44.659 42.735 45.271 43.032 45.712 43.527 C 46.053 43.91 46.642 43.946 47.028 43.614 C 47.416 43.28 47.455 42.701 47.116 42.32 C 46.346 41.455 45.279 40.937 44.113 40.861 C 43.16 40.801 42.237 41.056 41.449 41.561 C 38.746 39.812 36.138 40.186 34.534 40.906 C 34.464 40.637 34.425 40.36 34.425 40.08 C 34.425 38.51 35.54 37.197 37.03 36.849 C 37.214 37.649 37.619 38.736 38.498 39.294 C 38.655 39.392 38.83 39.441 39.003 39.441 C 39.31 39.441 39.61 39.293 39.787 39.021 C 40.067 38.596 39.944 38.028 39.51 37.753 C 39.077 37.478 38.822 36.485 38.757 35.906 C 38.764 35.841 38.787 35.777 38.778 35.709 C 38.757 35.559 38.744 35.404 38.744 35.248 C 38.744 33.667 39.873 32.347 41.379 32.008 C 41.465 33.122 41.798 34.883 42.989 36.201 C 43.831 37.131 44.957 37.663 46.313 37.828 C 46.816 38.826 47.848 39.44 48.949 39.44 C 49.271 39.44 49.595 39.387 49.915 39.278 C 50.401 39.111 50.659 38.588 50.489 38.11 C 50.32 37.633 49.79 37.38 49.301 37.547 C 48.739 37.741 48.124 37.447 47.928 36.893 C 47.732 36.34 48.03 35.734 48.593 35.542 C 49.079 35.374 49.336 34.852 49.167 34.374 C 48.996 33.896 48.461 33.643 47.979 33.81 C 46.973 34.155 46.286 34.99 46.078 35.946 C 45.392 35.789 44.832 35.475 44.39 34.987 C 43.241 33.722 43.209 31.691 43.219 31.184 C 43.609 30.038 44.715 29.244 45.95 29.244 C 46.28 29.244 46.601 29.319 46.908 29.426 C 47.112 30.287 47.646 31.906 48.886 32.629 C 49.035 32.715 49.2 32.757 49.36 32.757 C 49.679 32.757 49.989 32.596 50.163 32.308 C 50.426 31.871 50.28 31.309 49.837 31.051 C 49.264 30.718 48.871 29.684 48.706 28.936 C 49.048 28.398 49.637 28.048 50.29 28.048 C 51.331 28.048 52.177 28.881 52.177 29.903 L 52.177 43.098 C 52.177 44.338 51.525 45.495 50.483 46.164 C 49.191 45.517 46.877 45.086 44.729 46.885 C 44.336 47.213 44.289 47.793 44.623 48.178 C 44.808 48.391 45.07 48.501 45.334 48.501 C 45.547 48.501 45.763 48.43 45.938 48.283 C 47.886 46.652 49.731 47.832 49.933 47.973 C 49.945 47.981 49.958 47.981 49.971 47.989 C 49.992 48.003 50.008 48.02 50.031 48.033 C 51.354 48.734 52.177 50.088 52.177 51.564 L 52.177 59.685 C 52.177 60.487 51.934 61.257 51.482 61.919 C 51.261 62.136 50.062 63.208 47.924 63.208 C 47.856 63.208 47.789 63.207 47.718 63.205 C 47.708 63.204 47.698 63.204 47.687 63.204 C 47.186 63.204 46.772 63.596 46.757 64.092 C 46.738 64.598 47.142 65.022 47.658 65.038 C 47.747 65.041 47.836 65.043 47.923 65.043 C 49.761 65.043 51.096 64.427 51.927 63.887 C 52.084 64.298 52.176 64.733 52.176 65.183 L 52.176 71.496 C 52.176 73.332 50.656 74.826 48.789 74.826 C 47.32 74.826 46.027 73.904 45.57 72.533 C 45.562 72.506 45.538 72.489 45.527 72.464 C 45.496 72.392 45.47 72.318 45.418 72.253 C 45.301 72.101 44.473 70.901 45.638 69.191 C 46.031 69.358 46.444 69.447 46.859 69.447 C 47.816 69.447 48.76 69.012 49.363 68.193 C 49.664 67.783 49.571 67.21 49.153 66.913 C 48.737 66.616 48.153 66.707 47.85 67.119 C 47.456 67.654 46.692 67.774 46.149 67.387 C 45.605 67 45.481 66.25 45.875 65.716 C 46.177 65.305 46.082 64.732 45.665 64.435 C 45.248 64.138 44.664 64.23 44.362 64.642 C 43.617 65.655 43.605 66.973 44.222 67.984 C 42.944 69.732 43.017 71.369 43.432 72.458 C 43.022 72.626 42.584 72.724 42.13 72.724 C 40.262 72.724 38.742 71.23 38.742 69.394 C 38.742 69.228 38.755 69.067 38.78 68.909 C 38.786 68.869 38.774 68.832 38.774 68.793 C 38.775 68.753 38.79 68.718 38.786 68.678 C 38.615 67.072 39.816 65.9 39.829 65.889 C 40.202 65.54 40.218 64.959 39.864 64.593 C 39.508 64.225 38.918 64.209 38.546 64.558 C 38.483 64.617 37.283 65.784 36.984 67.578 C 35.085 66.842 33.785 65.043 33.785 62.957 C 33.785 61.925 34.105 60.933 34.711 60.09 C 34.715 60.084 34.715 60.076 34.72 60.068 C 34.767 59.998 34.81 59.923 34.837 59.838 C 35.447 57.948 37.465 57.513 38.615 57.418 C 38.937 59.988 41.167 61.986 43.867 61.986 C 46.786 61.986 49.163 59.65 49.163 56.778 C 49.163 55.893 48.922 55.031 48.493 54.266 C 49.413 53.878 50.179 53.144 50.555 52.151 C 50.736 51.676 50.491 51.148 50.008 50.972 C 49.527 50.795 48.988 51.036 48.808 51.511 C 48.437 52.49 47.324 52.991 46.325 52.626 C 45.326 52.261 44.818 51.165 45.19 50.185 C 45.37 49.71 45.125 49.182 44.642 49.005 C 44.158 48.832 43.623 49.069 43.441 49.544 C 42.71 51.472 43.712 53.625 45.672 54.344 C 45.925 54.437 46.182 54.494 46.44 54.532 C 46.451 54.547 46.454 54.564 46.467 54.577 C 47.001 55.19 47.297 55.97 47.297 56.778 C 47.297 58.638 45.758 60.151 43.867 60.151 C 41.975 60.151 40.436 58.639 40.436 56.778 C 40.436 55.767 40.893 54.816 41.689 54.171 C 42.087 53.85 42.144 53.272 41.815 52.881 C 41.489 52.489 40.902 52.435 40.503 52.756 C 39.6 53.488 38.982 54.476 38.719 55.569 C 37.376 55.64 34.807 56.086 33.524 58.273 C 32.362 57.472 31.638 56.166 31.638 54.733 Z"/>
  <path d="M 135.433 49.491 C 135.433 50.131 135.393 50.798 135.313 51.491 L 119.833 51.491 C 119.94 52.878 120.386 53.938 121.173 54.671 C 121.96 55.405 122.926 55.771 124.073 55.771 C 125.78 55.771 126.966 55.051 127.633 53.611 L 134.913 53.611 C 134.54 55.078 133.866 56.398 132.893 57.571 C 131.92 58.745 130.7 59.665 129.233 60.331 C 127.766 60.998 126.126 61.331 124.313 61.331 C 122.126 61.331 120.18 60.865 118.473 59.931 C 116.766 58.998 115.433 57.665 114.473 55.931 C 113.513 54.198 113.033 52.171 113.033 49.851 C 113.033 47.531 113.506 45.505 114.453 43.771 C 115.4 42.038 116.726 40.705 118.433 39.771 C 120.14 38.838 122.1 38.371 124.313 38.371 C 126.473 38.371 128.393 38.825 130.073 39.731 C 131.753 40.638 133.066 41.931 134.013 43.611 C 134.96 45.291 135.433 47.251 135.433 49.491 Z M 128.433 47.691 C 128.433 46.518 128.033 45.585 127.233 44.891 C 126.433 44.198 125.433 43.851 124.233 43.851 C 123.086 43.851 122.12 44.185 121.333 44.851 C 120.546 45.518 120.06 46.465 119.873 47.691 L 128.433 47.691 Z M 160.43 41.971 C 160.43 43.598 160.057 45.085 159.31 46.431 C 158.563 47.778 157.417 48.865 155.87 49.691 C 154.323 50.518 152.403 50.931 150.11 50.931 L 145.87 50.931 L 145.87 61.011 L 139.03 61.011 L 139.03 32.931 L 150.11 32.931 C 152.35 32.931 154.243 33.318 155.79 34.091 C 157.337 34.865 158.497 35.931 159.27 37.291 C 160.043 38.651 160.43 40.211 160.43 41.971 Z M 149.59 45.491 C 150.897 45.491 151.87 45.185 152.51 44.571 C 153.15 43.958 153.47 43.091 153.47 41.971 C 153.47 40.851 153.15 39.985 152.51 39.371 C 151.87 38.758 150.897 38.451 149.59 38.451 L 145.87 38.451 L 145.87 45.491 L 149.59 45.491 Z M 173.072 61.331 C 171.125 61.331 169.392 60.998 167.872 60.331 C 166.352 59.665 165.152 58.751 164.272 57.591 C 163.392 56.431 162.898 55.131 162.792 53.691 L 169.552 53.691 C 169.632 54.465 169.992 55.091 170.632 55.571 C 171.272 56.051 172.058 56.291 172.992 56.291 C 173.845 56.291 174.505 56.125 174.972 55.791 C 175.438 55.458 175.672 55.025 175.672 54.491 C 175.672 53.851 175.338 53.378 174.672 53.071 C 174.005 52.765 172.925 52.425 171.432 52.051 C 169.832 51.678 168.498 51.285 167.432 50.871 C 166.365 50.458 165.445 49.805 164.672 48.911 C 163.898 48.018 163.512 46.811 163.512 45.291 C 163.512 44.011 163.865 42.845 164.572 41.791 C 165.278 40.738 166.318 39.905 167.692 39.291 C 169.065 38.678 170.698 38.371 172.592 38.371 C 175.392 38.371 177.598 39.065 179.212 40.451 C 180.825 41.838 181.752 43.678 181.992 45.971 L 175.672 45.971 C 175.565 45.198 175.225 44.585 174.652 44.131 C 174.078 43.678 173.325 43.451 172.392 43.451 C 171.592 43.451 170.978 43.605 170.552 43.911 C 170.125 44.218 169.912 44.638 169.912 45.171 C 169.912 45.811 170.252 46.291 170.932 46.611 C 171.612 46.931 172.672 47.251 174.112 47.571 C 175.765 47.998 177.112 48.418 178.152 48.831 C 179.192 49.245 180.105 49.911 180.892 50.831 C 181.678 51.751 182.085 52.985 182.112 54.531 C 182.112 55.838 181.745 57.005 181.012 58.031 C 180.278 59.058 179.225 59.865 177.852 60.451 C 176.478 61.038 174.885 61.331 173.072 61.331 Z M 209.108 38.691 L 195.108 71.611 L 187.748 71.611 L 192.868 60.251 L 183.788 38.691 L 191.428 38.691 L 196.588 52.651 L 201.708 38.691 L 209.108 38.691 Z M 210.23 49.851 C 210.23 47.531 210.703 45.505 211.65 43.771 C 212.596 42.038 213.916 40.705 215.61 39.771 C 217.303 38.838 219.243 38.371 221.43 38.371 C 224.23 38.371 226.57 39.105 228.45 40.571 C 230.33 42.038 231.563 44.105 232.15 46.771 L 224.87 46.771 C 224.256 45.065 223.07 44.211 221.31 44.211 C 220.056 44.211 219.056 44.698 218.31 45.671 C 217.563 46.645 217.19 48.038 217.19 49.851 C 217.19 51.665 217.563 53.058 218.31 54.031 C 219.056 55.005 220.056 55.491 221.31 55.491 C 223.07 55.491 224.256 54.638 224.87 52.931 L 232.15 52.931 C 231.563 55.545 230.323 57.598 228.43 59.091 C 226.536 60.585 224.203 61.331 221.43 61.331 C 219.243 61.331 217.303 60.865 215.61 59.931 C 213.916 58.998 212.596 57.665 211.65 55.931 C 210.703 54.198 210.23 52.171 210.23 49.851 Z M 249.506 38.451 C 252.066 38.451 254.119 39.298 255.666 40.991 C 257.213 42.685 257.986 45.011 257.986 47.971 L 257.986 61.011 L 251.186 61.011 L 251.186 48.891 C 251.186 47.398 250.799 46.238 250.026 45.411 C 249.253 44.585 248.213 44.171 246.906 44.171 C 245.599 44.171 244.559 44.585 243.786 45.411 C 243.013 46.238 242.626 47.398 242.626 48.891 L 242.626 61.011 L 235.786 61.011 L 235.786 31.411 L 242.626 31.411 L 242.626 41.691 C 243.319 40.705 244.266 39.918 245.466 39.331 C 246.666 38.745 248.013 38.451 249.506 38.451 Z" style="white-space: pre; fill: rgb(255, 255, 255);"/>
</svg>