<?xml version="1.0" encoding="utf-8"?>
<svg viewBox="309.54 106.149 144.953 40.2" xmlns="http://www.w3.org/2000/svg">
  <path d="M 331.94 124.229 C 331.94 124.869 331.9 125.536 331.82 126.229 L 316.34 126.229 C 316.447 127.616 316.893 128.676 317.68 129.409 C 318.467 130.143 319.433 130.509 320.58 130.509 C 322.287 130.509 323.473 129.789 324.14 128.349 L 331.42 128.349 C 331.047 129.816 330.373 131.136 329.4 132.309 C 328.427 133.483 327.207 134.403 325.74 135.069 C 324.273 135.736 322.633 136.069 320.82 136.069 C 318.633 136.069 316.687 135.603 314.98 134.669 C 313.273 133.736 311.94 132.403 310.98 130.669 C 310.02 128.936 309.54 126.909 309.54 124.589 C 309.54 122.269 310.013 120.243 310.96 118.509 C 311.907 116.776 313.233 115.443 314.94 114.509 C 316.647 113.576 318.607 113.109 320.82 113.109 C 322.98 113.109 324.9 113.563 326.58 114.469 C 328.26 115.376 329.573 116.669 330.52 118.349 C 331.467 120.029 331.94 121.989 331.94 124.229 Z M 324.94 122.429 C 324.94 121.256 324.54 120.323 323.74 119.629 C 322.94 118.936 321.94 118.589 320.74 118.589 C 319.593 118.589 318.627 118.923 317.84 119.589 C 317.053 120.256 316.567 121.203 316.38 122.429 L 324.94 122.429 Z M 356.937 116.709 C 356.937 118.336 356.564 119.823 355.817 121.169 C 355.07 122.516 353.924 123.603 352.377 124.429 C 350.83 125.256 348.91 125.669 346.617 125.669 L 342.377 125.669 L 342.377 135.749 L 335.537 135.749 L 335.537 107.669 L 346.617 107.669 C 348.857 107.669 350.75 108.056 352.297 108.829 C 353.844 109.603 355.004 110.669 355.777 112.029 C 356.55 113.389 356.937 114.949 356.937 116.709 Z M 346.097 120.229 C 347.404 120.229 348.377 119.923 349.017 119.309 C 349.657 118.696 349.977 117.829 349.977 116.709 C 349.977 115.589 349.657 114.723 349.017 114.109 C 348.377 113.496 347.404 113.189 346.097 113.189 L 342.377 113.189 L 342.377 120.229 L 346.097 120.229 Z M 369.579 136.069 C 367.632 136.069 365.899 135.736 364.379 135.069 C 362.859 134.403 361.659 133.489 360.779 132.329 C 359.899 131.169 359.405 129.869 359.299 128.429 L 366.059 128.429 C 366.139 129.203 366.499 129.829 367.139 130.309 C 367.779 130.789 368.565 131.029 369.499 131.029 C 370.352 131.029 371.012 130.863 371.479 130.529 C 371.945 130.196 372.179 129.763 372.179 129.229 C 372.179 128.589 371.845 128.116 371.179 127.809 C 370.512 127.503 369.432 127.163 367.939 126.789 C 366.339 126.416 365.005 126.023 363.939 125.609 C 362.872 125.196 361.952 124.543 361.179 123.649 C 360.405 122.756 360.019 121.549 360.019 120.029 C 360.019 118.749 360.372 117.583 361.079 116.529 C 361.785 115.476 362.825 114.643 364.199 114.029 C 365.572 113.416 367.205 113.109 369.099 113.109 C 371.899 113.109 374.105 113.803 375.719 115.189 C 377.332 116.576 378.259 118.416 378.499 120.709 L 372.179 120.709 C 372.072 119.936 371.732 119.323 371.159 118.869 C 370.585 118.416 369.832 118.189 368.899 118.189 C 368.099 118.189 367.485 118.343 367.059 118.649 C 366.632 118.956 366.419 119.376 366.419 119.909 C 366.419 120.549 366.759 121.029 367.439 121.349 C 368.119 121.669 369.179 121.989 370.619 122.309 C 372.272 122.736 373.619 123.156 374.659 123.569 C 375.699 123.983 376.612 124.649 377.399 125.569 C 378.185 126.489 378.592 127.723 378.619 129.269 C 378.619 130.576 378.252 131.743 377.519 132.769 C 376.785 133.796 375.732 134.603 374.359 135.189 C 372.985 135.776 371.392 136.069 369.579 136.069 Z M 405.615 113.429 L 391.615 146.349 L 384.255 146.349 L 389.375 134.989 L 380.295 113.429 L 387.935 113.429 L 393.095 127.389 L 398.215 113.429 L 405.615 113.429 Z M 406.737 124.589 C 406.737 122.269 407.21 120.243 408.157 118.509 C 409.103 116.776 410.423 115.443 412.117 114.509 C 413.81 113.576 415.75 113.109 417.937 113.109 C 420.737 113.109 423.077 113.843 424.957 115.309 C 426.837 116.776 428.07 118.843 428.657 121.509 L 421.377 121.509 C 420.763 119.803 419.577 118.949 417.817 118.949 C 416.563 118.949 415.563 119.436 414.817 120.409 C 414.07 121.383 413.697 122.776 413.697 124.589 C 413.697 126.403 414.07 127.796 414.817 128.769 C 415.563 129.743 416.563 130.229 417.817 130.229 C 419.577 130.229 420.763 129.376 421.377 127.669 L 428.657 127.669 C 428.07 130.283 426.83 132.336 424.937 133.829 C 423.043 135.323 420.71 136.069 417.937 136.069 C 415.75 136.069 413.81 135.603 412.117 134.669 C 410.423 133.736 409.103 132.403 408.157 130.669 C 407.21 128.936 406.737 126.909 406.737 124.589 Z M 446.013 113.189 C 448.573 113.189 450.626 114.036 452.173 115.729 C 453.72 117.423 454.493 119.749 454.493 122.709 L 454.493 135.749 L 447.693 135.749 L 447.693 123.629 C 447.693 122.136 447.306 120.976 446.533 120.149 C 445.76 119.323 444.72 118.909 443.413 118.909 C 442.106 118.909 441.066 119.323 440.293 120.149 C 439.52 120.976 439.133 122.136 439.133 123.629 L 439.133 135.749 L 432.293 135.749 L 432.293 106.149 L 439.133 106.149 L 439.133 116.429 C 439.826 115.443 440.773 114.656 441.973 114.069 C 443.173 113.483 444.52 113.189 446.013 113.189 Z" style="white-space: pre; fill: rgb(255, 255, 255);"/>
</svg>